<mxfile host="app.diagrams.net" modified="2024-06-01T00:31:37.984Z" agent="Mozilla/5.0 (Windows NT 10.0; Win64; x64) AppleWebKit/537.36 (KHTML, like Gecko) Chrome/125.0.0.0 Safari/537.36" etag="cc-eY1KEKVAONl1l8YHF" version="24.4.13" type="device">
  <diagram id="bc47vRQSer-DN1HRI0ml" name="Page-1">
    <mxGraphModel dx="882" dy="578" grid="1" gridSize="10" guides="1" tooltips="1" connect="1" arrows="1" fold="1" page="1" pageScale="1" pageWidth="850" pageHeight="1100" math="0" shadow="0">
      <root>
        <mxCell id="0" />
        <mxCell id="1" parent="0" />
        <mxCell id="ErYFT6_SxTH0jQp-MLGw-1" value="" style="swimlane;startSize=0;" vertex="1" parent="1">
          <mxGeometry x="40" y="40" width="640" height="360" as="geometry" />
        </mxCell>
        <mxCell id="ErYFT6_SxTH0jQp-MLGw-19" style="edgeStyle=orthogonalEdgeStyle;rounded=0;orthogonalLoop=1;jettySize=auto;html=1;exitX=0.5;exitY=1;exitDx=0;exitDy=0;entryX=0.25;entryY=0;entryDx=0;entryDy=0;" edge="1" parent="ErYFT6_SxTH0jQp-MLGw-1" source="ErYFT6_SxTH0jQp-MLGw-3" target="ErYFT6_SxTH0jQp-MLGw-12">
          <mxGeometry relative="1" as="geometry" />
        </mxCell>
        <mxCell id="ErYFT6_SxTH0jQp-MLGw-3" value="" style="swimlane;startSize=0;" vertex="1" parent="ErYFT6_SxTH0jQp-MLGw-1">
          <mxGeometry x="40" y="40" width="160" height="120" as="geometry" />
        </mxCell>
        <mxCell id="ErYFT6_SxTH0jQp-MLGw-4" value="Application loop" style="rounded=1;whiteSpace=wrap;html=1;" vertex="1" parent="ErYFT6_SxTH0jQp-MLGw-3">
          <mxGeometry x="40" y="40" width="80" height="40" as="geometry" />
        </mxCell>
        <mxCell id="ErYFT6_SxTH0jQp-MLGw-5" value="Order manager" style="text;html=1;align=center;verticalAlign=middle;whiteSpace=wrap;rounded=0;" vertex="1" parent="ErYFT6_SxTH0jQp-MLGw-3">
          <mxGeometry width="160" height="40" as="geometry" />
        </mxCell>
        <mxCell id="ErYFT6_SxTH0jQp-MLGw-21" style="edgeStyle=orthogonalEdgeStyle;rounded=0;orthogonalLoop=1;jettySize=auto;html=1;exitX=0.5;exitY=1;exitDx=0;exitDy=0;entryX=0.75;entryY=0;entryDx=0;entryDy=0;" edge="1" parent="ErYFT6_SxTH0jQp-MLGw-1" source="ErYFT6_SxTH0jQp-MLGw-6" target="ErYFT6_SxTH0jQp-MLGw-12">
          <mxGeometry relative="1" as="geometry" />
        </mxCell>
        <mxCell id="ErYFT6_SxTH0jQp-MLGw-6" value="" style="swimlane;startSize=0;" vertex="1" parent="ErYFT6_SxTH0jQp-MLGw-1">
          <mxGeometry x="440" y="40" width="160" height="120" as="geometry" />
        </mxCell>
        <mxCell id="ErYFT6_SxTH0jQp-MLGw-7" value="Application loop" style="rounded=1;whiteSpace=wrap;html=1;" vertex="1" parent="ErYFT6_SxTH0jQp-MLGw-6">
          <mxGeometry x="40" y="40" width="80" height="40" as="geometry" />
        </mxCell>
        <mxCell id="ErYFT6_SxTH0jQp-MLGw-8" value="Market data publisher" style="text;html=1;align=center;verticalAlign=middle;whiteSpace=wrap;rounded=0;" vertex="1" parent="ErYFT6_SxTH0jQp-MLGw-6">
          <mxGeometry width="160" height="40" as="geometry" />
        </mxCell>
        <mxCell id="ErYFT6_SxTH0jQp-MLGw-20" style="edgeStyle=orthogonalEdgeStyle;rounded=0;orthogonalLoop=1;jettySize=auto;html=1;exitX=0.5;exitY=1;exitDx=0;exitDy=0;entryX=0.5;entryY=0;entryDx=0;entryDy=0;" edge="1" parent="ErYFT6_SxTH0jQp-MLGw-1" source="ErYFT6_SxTH0jQp-MLGw-9" target="ErYFT6_SxTH0jQp-MLGw-12">
          <mxGeometry relative="1" as="geometry" />
        </mxCell>
        <mxCell id="ErYFT6_SxTH0jQp-MLGw-9" value="" style="swimlane;startSize=0;" vertex="1" parent="ErYFT6_SxTH0jQp-MLGw-1">
          <mxGeometry x="240" y="40" width="160" height="120" as="geometry" />
        </mxCell>
        <mxCell id="ErYFT6_SxTH0jQp-MLGw-10" value="Application loop" style="rounded=1;whiteSpace=wrap;html=1;" vertex="1" parent="ErYFT6_SxTH0jQp-MLGw-9">
          <mxGeometry x="40" y="40" width="80" height="40" as="geometry" />
        </mxCell>
        <mxCell id="ErYFT6_SxTH0jQp-MLGw-11" value="Matching engine" style="text;html=1;align=center;verticalAlign=middle;whiteSpace=wrap;rounded=0;" vertex="1" parent="ErYFT6_SxTH0jQp-MLGw-9">
          <mxGeometry width="160" height="40" as="geometry" />
        </mxCell>
        <mxCell id="ErYFT6_SxTH0jQp-MLGw-22" style="edgeStyle=orthogonalEdgeStyle;rounded=0;orthogonalLoop=1;jettySize=auto;html=1;exitX=0.75;exitY=0;exitDx=0;exitDy=0;entryX=0.5;entryY=1;entryDx=0;entryDy=0;" edge="1" parent="ErYFT6_SxTH0jQp-MLGw-1" source="ErYFT6_SxTH0jQp-MLGw-12" target="ErYFT6_SxTH0jQp-MLGw-6">
          <mxGeometry relative="1" as="geometry" />
        </mxCell>
        <mxCell id="ErYFT6_SxTH0jQp-MLGw-23" style="edgeStyle=orthogonalEdgeStyle;rounded=0;orthogonalLoop=1;jettySize=auto;html=1;exitX=0.25;exitY=0;exitDx=0;exitDy=0;entryX=0.5;entryY=1;entryDx=0;entryDy=0;" edge="1" parent="ErYFT6_SxTH0jQp-MLGw-1" source="ErYFT6_SxTH0jQp-MLGw-12" target="ErYFT6_SxTH0jQp-MLGw-3">
          <mxGeometry relative="1" as="geometry" />
        </mxCell>
        <mxCell id="ErYFT6_SxTH0jQp-MLGw-24" style="edgeStyle=orthogonalEdgeStyle;rounded=0;orthogonalLoop=1;jettySize=auto;html=1;exitX=0.5;exitY=0;exitDx=0;exitDy=0;entryX=0.5;entryY=1;entryDx=0;entryDy=0;" edge="1" parent="ErYFT6_SxTH0jQp-MLGw-1" source="ErYFT6_SxTH0jQp-MLGw-12" target="ErYFT6_SxTH0jQp-MLGw-9">
          <mxGeometry relative="1" as="geometry" />
        </mxCell>
        <mxCell id="ErYFT6_SxTH0jQp-MLGw-26" style="edgeStyle=orthogonalEdgeStyle;rounded=0;orthogonalLoop=1;jettySize=auto;html=1;exitX=0.25;exitY=1;exitDx=0;exitDy=0;entryX=0.5;entryY=0;entryDx=0;entryDy=0;" edge="1" parent="ErYFT6_SxTH0jQp-MLGw-1" source="ErYFT6_SxTH0jQp-MLGw-12" target="ErYFT6_SxTH0jQp-MLGw-13">
          <mxGeometry relative="1" as="geometry" />
        </mxCell>
        <mxCell id="ErYFT6_SxTH0jQp-MLGw-29" style="edgeStyle=orthogonalEdgeStyle;rounded=0;orthogonalLoop=1;jettySize=auto;html=1;exitX=0.25;exitY=1;exitDx=0;exitDy=0;entryX=0.5;entryY=0;entryDx=0;entryDy=0;" edge="1" parent="ErYFT6_SxTH0jQp-MLGw-1" source="ErYFT6_SxTH0jQp-MLGw-12" target="ErYFT6_SxTH0jQp-MLGw-15">
          <mxGeometry relative="1" as="geometry" />
        </mxCell>
        <mxCell id="ErYFT6_SxTH0jQp-MLGw-31" style="edgeStyle=orthogonalEdgeStyle;rounded=0;orthogonalLoop=1;jettySize=auto;html=1;exitX=0.75;exitY=1;exitDx=0;exitDy=0;" edge="1" parent="ErYFT6_SxTH0jQp-MLGw-1" source="ErYFT6_SxTH0jQp-MLGw-12">
          <mxGeometry relative="1" as="geometry">
            <mxPoint x="400" y="280" as="targetPoint" />
          </mxGeometry>
        </mxCell>
        <mxCell id="ErYFT6_SxTH0jQp-MLGw-33" style="edgeStyle=orthogonalEdgeStyle;rounded=0;orthogonalLoop=1;jettySize=auto;html=1;exitX=0.75;exitY=1;exitDx=0;exitDy=0;entryX=0.5;entryY=0;entryDx=0;entryDy=0;" edge="1" parent="ErYFT6_SxTH0jQp-MLGw-1" source="ErYFT6_SxTH0jQp-MLGw-12" target="ErYFT6_SxTH0jQp-MLGw-14">
          <mxGeometry relative="1" as="geometry" />
        </mxCell>
        <mxCell id="ErYFT6_SxTH0jQp-MLGw-12" value="mmap" style="rounded=1;whiteSpace=wrap;html=1;" vertex="1" parent="ErYFT6_SxTH0jQp-MLGw-1">
          <mxGeometry x="40" y="200" width="560" height="40" as="geometry" />
        </mxCell>
        <mxCell id="ErYFT6_SxTH0jQp-MLGw-25" style="edgeStyle=orthogonalEdgeStyle;rounded=0;orthogonalLoop=1;jettySize=auto;html=1;exitX=0.5;exitY=0;exitDx=0;exitDy=0;entryX=0.25;entryY=1;entryDx=0;entryDy=0;" edge="1" parent="ErYFT6_SxTH0jQp-MLGw-1" source="ErYFT6_SxTH0jQp-MLGw-13" target="ErYFT6_SxTH0jQp-MLGw-12">
          <mxGeometry relative="1" as="geometry" />
        </mxCell>
        <mxCell id="ErYFT6_SxTH0jQp-MLGw-13" value="Reporter" style="rounded=1;whiteSpace=wrap;html=1;" vertex="1" parent="ErYFT6_SxTH0jQp-MLGw-1">
          <mxGeometry x="40" y="280" width="80" height="40" as="geometry" />
        </mxCell>
        <mxCell id="ErYFT6_SxTH0jQp-MLGw-32" style="edgeStyle=orthogonalEdgeStyle;rounded=0;orthogonalLoop=1;jettySize=auto;html=1;exitX=0.5;exitY=0;exitDx=0;exitDy=0;entryX=0.75;entryY=1;entryDx=0;entryDy=0;" edge="1" parent="ErYFT6_SxTH0jQp-MLGw-1" source="ErYFT6_SxTH0jQp-MLGw-14" target="ErYFT6_SxTH0jQp-MLGw-12">
          <mxGeometry relative="1" as="geometry" />
        </mxCell>
        <mxCell id="ErYFT6_SxTH0jQp-MLGw-14" value="Position keeper" style="rounded=1;whiteSpace=wrap;html=1;" vertex="1" parent="ErYFT6_SxTH0jQp-MLGw-1">
          <mxGeometry x="520" y="280" width="80" height="40" as="geometry" />
        </mxCell>
        <mxCell id="ErYFT6_SxTH0jQp-MLGw-27" style="edgeStyle=orthogonalEdgeStyle;rounded=0;orthogonalLoop=1;jettySize=auto;html=1;exitX=0.5;exitY=0;exitDx=0;exitDy=0;entryX=0.25;entryY=1;entryDx=0;entryDy=0;" edge="1" parent="ErYFT6_SxTH0jQp-MLGw-1" source="ErYFT6_SxTH0jQp-MLGw-15" target="ErYFT6_SxTH0jQp-MLGw-12">
          <mxGeometry relative="1" as="geometry" />
        </mxCell>
        <mxCell id="ErYFT6_SxTH0jQp-MLGw-15" value="Logging" style="rounded=1;whiteSpace=wrap;html=1;" vertex="1" parent="ErYFT6_SxTH0jQp-MLGw-1">
          <mxGeometry x="200" y="280" width="80" height="40" as="geometry" />
        </mxCell>
        <mxCell id="ErYFT6_SxTH0jQp-MLGw-30" style="edgeStyle=orthogonalEdgeStyle;rounded=0;orthogonalLoop=1;jettySize=auto;html=1;exitX=0.5;exitY=0;exitDx=0;exitDy=0;entryX=0.75;entryY=1;entryDx=0;entryDy=0;" edge="1" parent="ErYFT6_SxTH0jQp-MLGw-1" source="ErYFT6_SxTH0jQp-MLGw-16" target="ErYFT6_SxTH0jQp-MLGw-12">
          <mxGeometry relative="1" as="geometry" />
        </mxCell>
        <mxCell id="ErYFT6_SxTH0jQp-MLGw-16" value="Risk check" style="rounded=1;whiteSpace=wrap;html=1;" vertex="1" parent="ErYFT6_SxTH0jQp-MLGw-1">
          <mxGeometry x="360" y="280" width="80" height="40" as="geometry" />
        </mxCell>
      </root>
    </mxGraphModel>
  </diagram>
</mxfile>
